<svg width="65" height="68" viewBox="0 0 65 68" fill="none" xmlns="http://www.w3.org/2000/svg">
<path d="M45.8362 2.83949L14.952 55.9843C13.6718 56.212 12.4008 56.4921 11.1343 56.795C5.26231 51.6893 1.4267 44.6527 0.325976 36.9667C-0.774747 29.2808 0.93264 21.4567 5.13721 14.9193C9.34178 8.38191 15.7638 3.56613 23.2338 1.34898C30.7039 -0.868182 38.7249 -0.339234 45.8362 2.83949Z" fill="#005BAB"/>
<path d="M52.3124 6.71043L24.4411 54.6638C22.2374 54.8459 20.0656 55.1192 17.9099 55.4607L51.4505 6.06604C51.7409 6.27552 52.0289 6.48956 52.3124 6.71043Z" fill="#005BAB"/>
<path d="M57.8743 12.1387L33.3498 54.3199C33.0687 54.3199 32.7783 54.3199 32.488 54.3199C30.8878 54.3199 29.2876 54.3586 27.7102 54.4428L57.0674 11.1892C57.3486 11.5125 57.6092 11.8108 57.8743 12.1387Z" fill="#005BAB"/>
<path d="M61.9827 18.7421L41.0793 54.7185C39.668 54.5894 38.2499 54.493 36.825 54.4293L61.5941 17.9292C61.7312 18.1956 61.8615 18.4688 61.9827 18.7421Z" fill="#005BAB"/>
<path d="M65.0001 32.3834C65.0054 37.0116 64.0113 41.5869 62.0853 45.7988C60.1593 50.0108 57.3464 53.7609 53.8375 56.795C50.5895 56.0252 47.3019 55.4323 43.9893 55.0189L64.2023 25.2473C64.7311 27.5895 64.9986 29.9827 65.0001 32.3834Z" fill="#005BAB"/>
<path d="M52.5578 59.7322C53.4351 59.9338 53.8063 60.3035 53.6713 60.8413C53.6038 61.5807 53.5701 62.1857 53.5701 62.6562C54.6498 62.7234 55.6621 62.757 56.6069 62.757C57.3493 62.757 57.7542 62.8914 57.8217 63.1603C57.9566 63.2948 57.8891 63.3956 57.6192 63.4628C57.2143 63.53 56.1345 63.5636 54.3799 63.5636C53.9075 64.8408 54.0762 65.681 54.886 66.0843C55.6959 66.286 56.4045 66.3532 57.0118 66.286C57.6192 66.286 58.3615 66.1515 59.2388 65.8827C59.3063 65.8155 59.3401 65.8491 59.3401 65.9835C59.2726 66.3868 59.1039 66.7901 58.8339 67.1934C58.429 67.7312 57.9229 68.0001 57.3155 68.0001C56.8431 68.0001 56.1683 67.8656 55.291 67.5967C54.5486 67.3951 53.9075 67.059 53.3676 66.5885C53.0977 66.0507 53.0302 65.3785 53.1652 64.5719C53.2326 64.1686 53.3001 63.8325 53.3676 63.5636H52.5578C52.5578 64.5719 52.1866 65.4458 51.4443 66.1852C50.7019 66.7229 50.0271 67.0926 49.4197 67.2943C48.4074 67.6304 47.6651 67.664 47.1927 67.3951C47.0577 67.2607 46.9902 67.1262 46.9902 66.9918C47.1252 66.8573 47.3614 66.7565 47.6988 66.6893C48.7111 66.6221 49.6559 66.2524 50.5332 65.5802C51.2081 65.0424 51.5792 64.3703 51.6467 63.5636C50.432 63.5636 49.4197 63.7317 48.6099 64.0678C48.3399 64.2022 48.1712 64.135 48.1037 63.8661C48.1712 63.5972 48.3062 63.3284 48.5087 63.0595C48.7111 62.7906 48.9136 62.6898 49.116 62.757C50.1958 62.8914 51.2081 62.8578 52.1529 62.6562C52.2878 61.8496 52.2541 61.1438 52.0516 60.5388C52.0516 60.0683 52.2204 59.7994 52.5578 59.7322ZM50.432 60.7405C50.7019 61.2782 51.0394 61.7487 51.4443 62.152C51.4443 62.2865 51.4105 62.3537 51.343 62.3537C50.8032 62.2193 50.2633 62.0176 49.7234 61.7487C49.3185 61.4126 49.2847 61.0765 49.6222 60.7405C49.8921 60.4716 50.1621 60.4716 50.432 60.7405ZM55.7971 60.5388C56.067 60.3371 56.3032 60.5052 56.5057 61.0429C56.5732 61.4463 56.3032 61.7487 55.6959 61.9504C55.021 62.0848 54.5824 62.152 54.3799 62.152C54.3124 62.152 54.2787 62.1184 54.2787 62.0512C54.8186 61.379 55.3247 60.8749 55.7971 60.5388Z" fill="#005BAB"/>
<path d="M36.5641 61.0427C36.4966 61.5805 36.4966 62.2527 36.5641 63.0593C37.239 62.9921 37.8126 62.5551 38.285 61.7485C38.285 61.278 37.9813 61.0427 37.3739 61.0427H36.5641ZM36.5641 63.6643V65.4792C37.239 65.4792 37.7788 65.3447 38.1838 65.0758C38.5887 64.7397 38.5887 64.3364 38.1838 63.8659C37.7788 63.6643 37.239 63.597 36.5641 63.6643ZM39.4997 61.0427C39.5672 61.5805 39.1286 62.2191 38.1838 62.9585C38.1838 63.0257 38.3187 63.1265 38.5887 63.2609C39.196 63.597 39.4997 64.1012 39.4997 64.7734C39.4322 65.3783 39.1286 65.7816 38.5887 65.9833C37.8463 66.1849 37.1715 66.2186 36.5641 66.0841C36.5641 66.8235 36.4966 67.3613 36.3616 67.6974C36.2267 67.899 35.9905 67.9662 35.653 67.899C35.4506 67.7646 35.3494 67.5293 35.3494 67.1932C35.4168 65.5128 35.4843 63.8323 35.5518 62.1518C35.5518 61.6141 35.4843 61.278 35.3494 61.1436C35.0794 61.278 34.877 61.2444 34.742 61.0427C34.6745 60.8411 34.7083 60.673 34.8432 60.5386C34.9782 60.2697 35.2481 60.1689 35.653 60.2361C36.5304 60.4378 37.5089 60.4714 38.5887 60.3369C39.1286 60.3369 39.4322 60.5722 39.4997 61.0427ZM43.6501 64.2692C42.7053 64.1348 41.828 64.1348 41.0181 64.2692C40.9507 64.6053 41.0181 65.2103 41.2206 66.0841C41.4231 66.2186 41.7942 66.2522 42.3341 66.1849C43.0765 66.1849 43.4814 66.0841 43.5489 65.8825C43.6163 65.2775 43.6501 64.7397 43.6501 64.2692ZM42.3341 61.6477C41.4568 61.5805 40.9844 61.8157 40.9169 62.3535V63.4626C41.7942 63.5298 42.6715 63.5298 43.5489 63.4626C43.6838 63.0593 43.7176 62.5888 43.6501 62.051C43.6501 61.7821 43.2114 61.6477 42.3341 61.6477ZM44.7636 66.3866C44.8311 66.8571 44.6286 67.1596 44.1562 67.2941C43.9538 67.2941 43.8188 67.2604 43.7513 67.1932C43.0765 66.8571 42.1991 66.7899 41.1194 66.9916C40.5795 67.2604 40.2758 67.2604 40.2083 66.9916C40.0733 66.3866 40.0059 65.8825 40.0059 65.4792C40.0733 64.1348 40.0396 62.8912 39.9046 61.7485C39.8371 61.4124 39.8709 61.1436 40.0059 60.9419C40.2758 60.673 40.512 60.5722 40.7145 60.6394C40.9844 60.7066 41.2543 60.8075 41.5243 60.9419C42.5366 61.0091 43.3801 60.9419 44.055 60.7402C44.19 60.673 44.4262 60.7402 44.7636 60.9419C45.0335 61.1436 45.101 61.3788 44.966 61.6477C44.7636 63.1265 44.6961 64.7061 44.7636 66.3866Z" fill="#005BAB"/>
<path d="M23.2016 60.6396C23.6065 60.7068 24.1801 60.7405 24.9224 60.7405C24.855 60.2027 24.9562 59.8666 25.2261 59.7322C25.2936 59.7322 25.3948 59.7322 25.5298 59.7322C25.9347 59.7994 26.1372 60.1355 26.1372 60.7405H28.6679C28.6679 60.1355 28.7691 59.7994 28.9716 59.7322C29.1065 59.7322 29.2753 59.7322 29.4777 59.7322C29.7477 59.8666 29.8826 60.2027 29.8826 60.7405H30.3888C30.9287 60.7405 31.4685 60.7741 32.0084 60.8413C32.2109 60.9085 32.3121 61.0429 32.3121 61.2446C32.3796 61.5135 31.5698 61.6143 29.8826 61.5471C29.8826 62.0176 29.7139 62.2865 29.3765 62.3537C29.2415 62.3537 29.1403 62.3537 29.0728 62.3537C28.7354 62.2865 28.6004 62.0176 28.6679 61.5471H26.036C25.9685 61.9504 25.7998 62.1857 25.5298 62.2529C25.3948 62.2529 25.2936 62.2529 25.2261 62.2529C25.0237 61.984 24.9224 61.7487 24.9224 61.5471C24.0451 61.4799 23.3028 61.5807 22.6954 61.8496C22.223 61.984 22.0206 61.816 22.0881 61.3454C22.2905 60.8749 22.6617 60.6396 23.2016 60.6396ZM30.7937 64.1686C31.2661 64.3703 31.7385 64.5383 32.2109 64.6727C33.0882 64.8744 33.5268 65.0088 33.5268 65.0761C33.3919 65.3449 33.2569 65.6138 33.1219 65.8827C32.7845 66.286 32.5146 66.454 32.3121 66.3868C31.5023 65.6474 30.7937 65.0424 30.1863 64.5719C30.1188 64.2358 30.3213 64.1014 30.7937 64.1686ZM21.177 65.1769C21.177 64.7736 21.4132 64.5383 21.8856 64.4711C22.8979 64.4039 23.9102 64.2694 24.9224 64.0678C25.1924 64.0678 25.1586 64.2022 24.8212 64.4711C24.0789 65.0761 23.1341 65.4794 21.9868 65.681C21.5144 65.681 21.2445 65.513 21.177 65.1769ZM25.0237 62.5554C25.3611 62.6226 25.901 62.6562 26.6433 62.6562C26.8458 62.1184 27.0482 61.8496 27.2507 61.8496C27.4532 61.9168 27.6219 61.984 27.7568 62.0512C28.0268 62.2529 28.0943 62.5217 27.9593 62.8578C28.4317 62.9923 28.8029 63.0595 29.0728 63.0595C29.3427 62.8578 29.6802 62.8242 30.0851 62.9587C30.355 63.2948 30.4225 63.53 30.2875 63.6645C30.0851 63.9333 29.8826 64.4039 29.6802 65.0761C29.2078 66.6221 28.4654 67.4959 27.4532 67.6976C27.0482 67.832 26.6433 67.6976 26.2384 67.2943C26.1034 67.0926 26.0022 66.891 25.9347 66.6893C25.9347 66.6221 26.2047 66.6557 26.7446 66.7901C26.947 66.8573 27.2507 66.7565 27.6556 66.4876C28.263 65.8827 28.6679 65.1097 28.8703 64.1686C28.8703 63.8997 28.7691 63.7317 28.5667 63.6645L27.6556 63.5636C27.3857 64.1014 27.082 64.6055 26.7446 65.0761C26.1372 65.8827 25.4286 66.4876 24.6188 66.891C23.674 67.2943 23.0329 67.3615 22.6954 67.0926C22.358 66.7565 22.2905 66.5549 22.493 66.4876C23.1003 66.4204 23.674 66.2524 24.2138 65.9835C25.3611 65.3785 26.1372 64.5383 26.5421 63.4628C25.7998 63.4628 25.0912 63.4964 24.4163 63.5636C24.0789 63.6309 23.9439 63.4964 24.0114 63.1603C24.2138 62.757 24.5513 62.5554 25.0237 62.5554Z" fill="#005BAB"/>
<path d="M13.3822 60.7403C14.8669 60.942 16.3516 60.9756 17.8363 60.8411C18.2412 60.8411 18.4774 60.9756 18.5449 61.2444C18.7473 61.8494 17.9375 62.0175 16.1154 61.7486C15.9804 63.1602 15.9804 64.5045 16.1154 65.7817C17.1952 65.9161 18.4099 65.9834 19.7596 65.9834C20.232 65.9834 20.502 66.017 20.5694 66.0842C20.4345 66.4875 20.2658 66.8236 20.0633 67.0925C19.7259 67.563 19.186 67.6638 18.4437 67.3949C16.8915 66.7228 15.2718 66.4875 13.5847 66.6891C12.9098 66.7564 12.2687 66.8908 11.6614 67.0925C11.4589 67.1597 11.3239 67.0589 11.2564 66.79C11.3239 66.3194 11.6614 65.9497 12.2687 65.6809C12.5387 65.5464 12.8761 65.58 13.281 65.7817C13.8884 65.8489 14.3608 65.8489 14.6982 65.7817C14.8332 64.1012 14.8332 62.7569 14.6982 61.7486C14.1583 61.6814 13.551 61.7486 12.8761 61.9502C12.6736 62.0175 12.5387 61.9166 12.4712 61.6478C12.6062 61.0428 12.9098 60.7403 13.3822 60.7403ZM10.1429 60.5387C10.6828 60.942 11.3239 61.4797 12.0663 62.1519C12.0663 62.2863 11.9313 62.3536 11.6614 62.3536C10.8515 62.2863 10.1767 62.0511 9.6368 61.6478C9.23188 61.3117 9.1644 61.0092 9.43434 60.7403C9.6368 60.4714 9.873 60.4042 10.1429 60.5387ZM9.02943 62.7569C9.56931 62.9585 10.1092 63.1602 10.6491 63.3618L11.965 63.866C12.1 64.0676 12.0663 64.2021 11.8638 64.2693C10.6491 64.4709 9.50183 64.3029 8.42206 63.7651C8.08463 63.4963 8.05089 63.1938 8.32083 62.8577C8.52329 62.7233 8.75949 62.6896 9.02943 62.7569ZM9.6368 65.7817C10.1767 65.5128 10.8853 65.2776 11.7626 65.0759C11.8976 65.0759 11.965 65.1095 11.965 65.1767C11.5601 65.8489 11.054 66.3867 10.4466 66.79C9.90674 67.1933 9.46808 67.2941 9.13066 67.0925C8.59077 66.6219 8.75949 66.185 9.6368 65.7817Z" fill="#005BAB"/>
</svg>
